/* XPM */
static char *_[] = {
/* columns rows colors chars-per-pixel */
"33 28 14 1 ",
"  c #DDC210",
". c #DDC310",
"X c #DDC211",
"o c #DFC210",
"O c #DEC310",
"+ c #DFC310",
"@ c #DEC211",
"# c #DEC311",
"$ c #DFC311",
"% c #DEC410",
"& c #DFC410",
"* c #DEC411",
"= c #DFC411",
"- c None",
/* pixels */
"---------#===========&$----------",
"-------##==============*---------",
"------$=================#--------",
"-----O====================-------",
"----X=====================O------",
"----#========%----=========$-----",
"---#=========-----O=========-----",
"---$========$------=========o----",
"---=========$------#========+----",
"--.=========$------==========----",
"--%=========-------$=========----",
"--#=========-------+=========X---",
"--#=========-------#=========O---",
"--==========-------*=========O---",
"--==========-------#=========#---",
"--$=========-------+=========@---",
"--O=========-------#=========----",
"--o========= ------#=========----",
"---==========------#=========----",
"---#========+------=========*----",
"---O=========-----==========-----",
"----=========#---X=========*-----",
"----#======================------",
"-----+====================@------",
"------+==================#-------",
"-------O================---------",
"---------$=============----------",
"------------#O*=%=*#-------------"
};
