/* XPM */
static char *_[] = {
/* columns rows colors chars-per-pixel */
"33 28 10 1 ",
"  c #DDC310",
". c #DEC310",
"X c #DEC211",
"o c #DEC311",
"O c #DFC311",
"+ c #DEC410",
"@ c #DFC410",
"# c #DEC411",
"$ c #DFC411",
"% c None",
/* pixels */
"%%%%%%%%%%%%%%%@$$$$$$$$.%%%%%%%%",
"%%%%%%%%%%%%%%$$$$$$$$$$.%%%%%%%%",
"%%%%%%%%%%%%.$$$$$$$$$$$.%%%%%%%%",
"%%%%%%%%%%%$$$$$$$$$$$$$.%%%%%%%%",
"%%%%%%%%%.$$$$$$$$$$$$$$.%%%%%%%%",
"%%%%%%%%O$$$$$$$$$$$$$$$.%%%%%%%%",
"%%%%%%.$$$$$$$$$$$$$$$$$.%%%%%%%%",
"%%%%%%$$$$$$$$$$$$$$$$$$.%%%%%%%%",
"%%%%%%o$$$$$$$$$$$$$$$$$.%%%%%%%%",
"%%%%%%X$$$$$$$O$$$$$$$$$.%%%%%%%%",
"%%%%%%%$$$$$o o$$$$$$$$$.%%%%%%%%",
"%%%%%%%+$$$$%%%$$$$$$$$$.%%%%%%%%",
"%%%%%%%%$$@%%%%$$$$$$$$$.%%%%%%%%",
"%%%%%%%%#%%%%%%$$$$$$$$$.%%%%%%%%",
"%%%%%%%%%%%%%%%$$$$$$$$$.%%%%%%%%",
"%%%%%%%%%%%%%%%$$$$$$$$$.%%%%%%%%",
"%%%%%%%%%%%%%%%$$$$$$$$$.%%%%%%%%",
"%%%%%%%%%%%%%%%$$$$$$$$$.%%%%%%%%",
"%%%%%%%%%%%%%%%$$$$$$$$$.%%%%%%%%",
"%%%%%%%%%%%%%%%$$$$$$$$$.%%%%%%%%",
"%%%%%%%%%%%%%%%$$$$$$$$$.%%%%%%%%",
"%%%%%%%%%%%%%%%$$$$$$$$$.%%%%%%%%",
"%%%%%%%%%%%%%%%$$$$$$$$$.%%%%%%%%",
"%%%%%%%%%%%%%%%$$$$$$$$$.%%%%%%%%",
"%%%%%%%%%%%%%%%$$$$$$$$$.%%%%%%%%",
"%%%%%%%%%%%%%%%$$$$$$$$$.%%%%%%%%",
"%%%%%%%%%%%%%%%$$$$$$$$$.%%%%%%%%",
"%%%%%%%%%%%%%%%$$$$$$$$$.%%%%%%%%"
};
