/* XPM */
static char *_[] = {
/* columns rows colors chars-per-pixel */
"33 28 10 1 ",
"  c #DDC310",
". c #DEC310",
"X c #DFC310",
"o c #DEC211",
"O c #DEC311",
"+ c #DFC311",
"@ c #DEC410",
"# c #DFC410",
"$ c #DFC411",
"% c None",
/* pixels */
"%%%%%O$$$$$$$$$$$$$$$O%%%%%%%%%%%",
"%%%%%O$$$$$$$$$$$$$$$$$.%%%%%%%%%",
"%%%%%O$$$$$$$$$$$$$$$$$$$%%%%%%%%",
"%%%%%O$$$$$$$$$$$$$$$$$$$o%%%%%%%",
"%%%%%O$$$$$$$$$$$$$$$$$$$$%%%%%%%",
"%%%%%O$$$$$$$$$$$$$$$$$$$$%%%%%%%",
"%%%%%O.%%%%%%%O+$$$$$$$$$$+%%%%%%",
"%%%%%%%%%%%%%%%%X$$$$$$$$$+%%%%%%",
"%%%%%%%%%%%%%%%%%$$$$$$$$$$%%%%%%",
"%%%%%%%%%%%%%%%%%$$$$$$$$$@%%%%%%",
"%%%%%%%%%%%%%%%%%$$$$$$$$$@%%%%%%",
"%%%%%%%%%%%%%%%%%$$$$$$$$$%%%%%%%",
"%%%%%%%%%%%%%%%%$$$$$$$$$X%%%%%%%",
"%%%%%%%%%%%%%%%.$$$$$$$$O%%%%%%%%",
"%%%%%%%%%%%%%%O$$$$$$$$$o%%%%%%%%",
"%%%%%%%%%%%%%.$$$$$$$$$.%%%%%%%%%",
"%%%%%%%%%%%+$$$$$$$$$$+%%%%%%%%%%",
"%%%%%%%%% O$$$$$$$$$O%%%%%%%%%%%%",
"%%%%%%%%#$$$$$$$$$$O%%%%%%%%%%%%%",
"%%%%%%X$$$$$$$$$$$%%%%%%%%%%%%%%%",
"%%%%%$$$$$$$$$$+%%%%%%%%%%%%%%%%%",
"%%%%%$$$$$$$$$$$$$$$$$$$$$+%%%%%%",
"%%%%%$$$$$$$$$$$$$$$$$$$$$+%%%%%%",
"%%%%%$$$$$$$$$$$$$$$$$$$$$+%%%%%%",
"%%%%%$$$$$$$$$$$$$$$$$$$$$+%%%%%%",
"%%%%%$$$$$$$$$$$$$$$$$$$$$+%%%%%%",
"%%%%%$$$$$$$$$$$$$$$$$$$$$+%%%%%%",
"%%%%%$$$$$$$$$$$$$$$$$$$$$+%%%%%%"
};
