/* XPM */
static char *_[] = {
/* columns rows colors chars-per-pixel */
"33 28 13 1 ",
"  c #DDC310",
". c #DDC211",
"X c #DDC311",
"o c #DEC210",
"O c #DEC310",
"+ c #DFC310",
"@ c #DEC311",
"# c #DFC311",
"$ c #DEC410",
"% c #DFC410",
"& c #DEC411",
"* c #DFC411",
"= c None",
/* pixels */
"=====+**************$X===========",
"=====O****************O==========",
"=====O******************+========",
"=====O*******************========",
"=====O*******************+=======",
"=====@@X======$***********=======",
"===============O**********=======",
"================**********=======",
"================**********=======",
"================*********@=======",
"==============o&*********O=======",
"========X***************+========",
"========X**************O=========",
"========X************%===========",
"========X************$ ==========",
"========X**************$=========",
"========X****************========",
"===============O*********#=======",
"================O*********.======",
"================ *********&======",
"================O*********@======",
"=====%*========O**********&======",
"=====*********************#======",
"=====*********************=======",
"=====********************O=======",
"=====*******************O========",
"=====******************#=========",
"=====+***************O==========="
};
