/* XPM */
static char *_[] = {
/* columns rows colors chars-per-pixel */
"33 28 11 1 ",
"  c #DDC211",
". c #DEC310",
"X c #DFC310",
"o c #DEC211",
"O c #DEC311",
"+ c #DFC311",
"@ c #DEC410",
"# c #DFC410",
"$ c #DEC411",
"% c #DFC411",
"& c None",
/* pixels */
"&&&&&&&&&&&&&&&&&&%%%%%%%&&&&&&&&",
"&&&&&&&&&&&&&&&&&O%%%%%%$&&&&&&&&",
"&&&&&&&&&&&&&&&&+%%%%%%%$&&&&&&&&",
"&&&&&&&&&&&&&&&X%%%%%%%%$&&&&&&&&",
"&&&&&&&&&&&&&&@%%%%%%%%%$&&&&&&&&",
"&&&&&&&&&&&&&#%%%%%%%%%%O&&&&&&&&",
"&&&&&&&&&&&&X%%%%%%%%%%%O&&&&&&&&",
"&&&&&&&&&&&.%%%%%%%%%%%%O&&&&&&&&",
"&&&&&&&&&&o%%%%%%@%%%%%%O&&&&&&&&",
"&&&&&&&&& %%%%%%+&%%%%%%O&&&&&&&&",
"&&&&&&&&&%%%%%%X&&%%%%%%O&&&&&&&&",
"&&&&&&&&O%%%%%%&&&%%%%%%O&&&&&&&&",
"&&&&&&&@%%%%%+&&&&%%%%%%O&&&&&&&&",
"&&&&&&$%%%%%%&&&&&%%%%%%%&&&&&&&&",
"&&&&&X%%%%%%o&&&&&%%%%%%%&&&&&&&&",
"&&&&@%%%%%%X&&&&&&%%%%%%%&&&&&&&&",
"&&&X%%%%%%#&&&&&&&%%%%%%%&&&&&&&&",
"&&&%%%%%%%%%%%%%%%%%%%%%%%%%%.&&&",
"&&&%%%%%%%%%%%%%%%%%%%%%%%%%%.&&&",
"&&&%%%%%%%%%%%%%%%%%%%%%%%%%%.&&&",
"&&&%%%%%%%%%%%%%%%%%%%%%%%%%%.&&&",
"&&&%%%%%%%%%%%%%%%%%%%%%%%%%%.&&&",
"&&&%%%%%%%%%%%%%%%%%%%%%%%%%%.&&&",
"&&&&&&&&&&&&&&&&&&%%%%%%%&&&&&&&&",
"&&&&&&&&&&&&&&&&&&%%%%%%%&&&&&&&&",
"&&&&&&&&&&&&&&&&&&%%%%%%%&&&&&&&&",
"&&&&&&&&&&&&&&&&&&%%%%%%%&&&&&&&&",
"&&&&&&&&&&&&&&&&&&%%%%%%%&&&&&&&&"
};
