/* XPM */
static char *_[] = {
/* columns rows colors chars-per-pixel */
"33 28 12 1 ",
"  c #DDC310",
". c #DDC311",
"X c #DEC210",
"o c #DFC210",
"O c #DEC310",
"+ c #DFC310",
"@ c #DEC311",
"# c #DFC311",
"$ c #DEC410",
"% c #DEC411",
"& c #DFC411",
"* c None",
/* pixels */
"******&&&&&&&&&&&&&&&&&&&$*******",
"******&&&&&&&&&&&&&&&&&&&$*******",
"******&&&&&&&&&&&&&&&&&&&$*******",
"******&&&&&&&&&&&&&&&&&&&$*******",
"******&&&&&&&&&&&&&&&&&&&$*******",
"******&&&&&&&&&&&&&&&&&&&$*******",
"******&&&&&&&&&&&&&&&&&&&$*******",
"******&&&&&&&&&******************",
"******&&&&&&&&&******************",
"******&&&&&&&&&******************",
"******&&&&&&&&&******************",
"******&&&&&&&&&&%O#o*************",
"******&&&&&&&&&&&&&&&@ **********",
"******&&&&&&&&&&&&&&&&&$*********",
"******&&&&&&&&&&&&&&&&&&$********",
"******#@@****@$&&&&&&&&&&O*******",
"***************O&&&&&&&&&&*******",
"****************+&&&&&&&&&#******",
"****************O&&&&&&&&&#******",
"****************O&&&&&&&&&O******",
"****************@&&&&&&&&&%******",
"******$*******#$&&&&&&&&&&$******",
"******&&&&&&&&&&&&&&&&&&&&*******",
"******&&&&&&&&&&&&&&&&&&&#*******",
"******&&&&&&&&&&&&&&&&&&&.*******",
"******&&&&&&&&&&&&&&&&&&O********",
"******&&&&&&&&&&&&&&&&&X*********",
"******+&&&&&&&&&&&&&%$***********"
};
