/* XPM */
static char *_[] = {
/* columns rows colors chars-per-pixel */
"33 28 14 1 ",
"  c #DDC210",
". c #DDC310",
"X c #DDC311",
"o c #DEC210",
"O c #DFC210",
"+ c #DEC310",
"@ c #DFC310",
"# c #DEC311",
"$ c #DFC311",
"% c #DEC410",
"& c #DFC410",
"* c #DEC411",
"= c #DFC411",
"- c None",
/* pixels */
"------------+==============------",
"----------&================------",
"---------*=================------",
"--------===================------",
"-------#===================------",
"------$==========%-------%@------",
"------==========-----------------",
"-----%========&------------------",
"-----=========o------------------",
"---- =========-------------------",
"----*=========--+*%+=#+o---------",
"----$====================+-------",
"----#=====================+------",
"----=======================%-----",
"----========================%----",
"----#==========O---##========----",
"----+=========$-----#========#---",
"----+=========-------=========---",
"-----=========-------=========---",
"-----=========-------========*---",
"-----#========*-----X========@---",
"------=========#---#=========X---",
"------.=====================$----",
"-------@====================-----",
"--------@==================.-----",
"---------+#===============-------",
"-----------+============#--------",
"--------------#=@*=%++-----------"
};
