/* XPM */
static char *_[] = {
/* columns rows colors chars-per-pixel */
"33 28 11 1 ",
"  c #DDC211",
". c #DEC210",
"X c #DEC310",
"o c #DFC310",
"O c #DEC311",
"+ c #DFC311",
"@ c #DDC410",
"# c #DEC410",
"$ c #DEC411",
"% c #DFC411",
"& c None",
/* pixels */
"&&&&& %%%%%%%%%%%%%%%%%%%%%%&&&&&",
"&&&&& %%%%%%%%%%%%%%%%%%%%%%&&&&&",
"&&&&& %%%%%%%%%%%%%%%%%%%%%%&&&&&",
"&&&&& %%%%%%%%%%%%%%%%%%%%%%&&&&&",
"&&&&& %%%%%%%%%%%%%%%%%%%%%%&&&&&",
"&&&&& %%%%%%%%%%%%%%%%%%%%%%&&&&&",
"&&&&& %%%%%%%%%%%%%%%%%%%%%%&&&&&",
"&&&&& %%%%%%%%%%%%%%%%%%%%%%&&&&&",
"&&&&&&&&&&&&&&&&&&%%%%%%%%%+&&&&&",
"&&&&&&&&&&&&&&&&&X%%%%%%%%%&&&&&&",
"&&&&&&&&&&&&&&&&&%%%%%%%%%o&&&&&&",
"&&&&&&&&&&&&&&&&o%%%%%%%%%&&&&&&&",
"&&&&&&&&&&&&&&&O%%%%%%%%%o&&&&&&&",
"&&&&&&&&&&&&&&&O%%%%%%%%%&&&&&&&&",
"&&&&&&&&&&&&&&O%%%%%%%%%#&&&&&&&&",
"&&&&&&&&&&&&&&%%%%%%%%%%&&&&&&&&&",
"&&&&&&&&&&&&&O%%%%%%%%%#&&&&&&&&&",
"&&&&&&&&&&&&.%%%%%%%%%%&&&&&&&&&&",
"&&&&&&&&&&&&O%%%%%%%%%#&&&&&&&&&&",
"&&&&&&&&&&&#%%%%%%%%%%&&&&&&&&&&&",
"&&&&&&&&&&&%%%%%%%%%%#&&&&&&&&&&&",
"&&&&&&&&&&%%%%%%%%%%%&&&&&&&&&&&&",
"&&&&&&&&&+%%%%%%%%%%X&&&&&&&&&&&&",
"&&&&&&&&&$%%%%%%%%%%&&&&&&&&&&&&&",
"&&&&&&&&+%%%%%%%%%%X&&&&&&&&&&&&&",
"&&&&&&&&%%%%%%%%%%%&&&&&&&&&&&&&&",
"&&&&&&&#%%%%%%%%%%X&&&&&&&&&&&&&&",
"&&&&&&@%%%%%%%%%%%&&&&&&&&&&&&&&&"
};
