/* XPM */
static char *_[] = {
/* columns rows colors chars-per-pixel */
"33 28 15 1 ",
"  c #DDC310",
". c #DDC211",
"X c #DDC311",
"o c #DFC210",
"O c #DEC310",
"+ c #DFC310",
"@ c #DEC211",
"# c #DEC311",
"$ c #DFC311",
"% c #DDC410",
"& c #DEC410",
"* c #DFC410",
"= c #DEC411",
"- c #DFC411",
"; c None",
/* pixels */
";;;;;;;;@+----------#o;;;;;;;;;;;",
";;;;;;;=--------------#%;;;;;;;;;",
";;;;;;#-----------------&;;;;;;;;",
";;;;;--------------------&;;;;;;;",
";;;;&---------------------X;;;;;;",
";;;;---------X;;;#--------=;;;;;;",
";;;$--------#;;;;;O--------X;;;;;",
";;;*--------;;;;;;;--------=;;;;;",
";;;&--------;;;;;;;---------;;;;;",
";;;---------;;;;;;;---------$;;;;",
";;;#--------;;;;;;;---------#;;;;",
";;;*---------;;;;;----------&;;;;",
";;;;---------+;;;=----------$;;;;",
";;;;&------------------------;;;;",
";;;;;&----------------------#;;;;",
";;;;;;&---------------------O;;;;",
";;;;;;;=----------O--------- ;;;;",
";;;;;;;;;++==OO#.;;---------;;;;;",
";;;;;;;;;;;;;;;;;;;---------;;;;;",
";;;;;;;;;;;;;;;;;;O--------O;;;;;",
";;;;;;;;;;;;;;;;;O---------;;;;;;",
";;;;;;#;;;;;;;;&#---------+;;;;;;",
";;;;;@-------------------$;;;;;;;",
";;;;;@-------------------;;;;;;;;",
";;;;;@-----------------$;;;;;;;;;",
";;;;;@----------------&;;;;;;;;;;",
";;;;;@--------------&;;;;;;;;;;;;",
";;;;;;;OO#*+$#$#O#;;;;;;;;;;;;;;;"
};
