/* XPM */
static char *a[] = {
/* columns rows colors chars-per-pixel */
"33 28 12 1 ",
"  c #DEC210",
". c #DEC310",
"X c #DFC310",
"o c #DEC311",
"O c #DFC311",
"+ c #DDC410",
"@ c #DDC411",
"# c #DEC410",
"$ c #DFC410",
"% c #DEC411",
"& c #DFC411",
"* c None",
/* pixels */
"**********&&&&&&&&&&&&&X*********",
"*********.&&&&&&&&&&&&&&*********",
"*********o&&&&&&&&&&&&&&o********",
"*********&&&&&&&&&&&&&&&X********",
"********.&&&&&&&&&&&&&&&&********",
"********o&&&&&&&o&&&&&&&&o*******",
"********&&&&&&&&o&&&&&&&&#*******",
"*******.&&&&&&&&*o&&&&&&&&*******",
"*******o&&&&&&&.**&&&&&&&&@******",
"*******&&&&&&&&***&&&&&&&&X******",
"******X&&&&&&&O***o&&&&&&&&******",
"******o&&&&&&&o****&&&&&&&&.*****",
"******&&&&&&&&*****#&&&&&&&&*****",
"*****O&&&&&&&X*****o&&&&&&&&*****",
"*****o&&&&&&&X******&&&&&&&& ****",
"*****&&&&&&&&*******#&&&&&&&o****",
"****%&&&&&&&O*******%&&&&&&&&****",
"****o&&&&&&&&&&&&&&&&&&&&&&&&+***",
"****&&&&&&&&&&&&&&&&&&&&&&&&&%***",
"***%&&&&&&&&&&&&&&&&&&&&&&&&&&***",
"***o&&&&&&&&&&&&&&&&&&&&&&&&&&o**",
"***&&&&&&&&&&&&&&&&&&&&&&&&&&&%**",
"**o&&&&&&&&&&&&&&&&&&&&&&&&&&&&**",
"**%&&&&&&&&&*********o&&&&&&&&&O*",
"**&&&&&&&&&%*********O&&&&&&&&&X*",
"*%&&&&&&&&&***********&&&&&&&&&&*",
"*%&&&&&&&&o***********O&&&&&&&&&#",
"*&&&&&&&&&o***********o&&&&&&&&&$"
};
