/* XPM */
static char *b[] = {
/* columns rows colors chars-per-pixel */
"33 28 10 1 ",
"  c #DDC311",
". c #DEC310",
"X c #DFC310",
"o c #DEC311",
"O c #DDC411",
"+ c #DEC410",
"@ c #DFC410",
"# c #DEC411",
"$ c #DFC411",
"% c None",
/* pixels */
"%$$$$$$$$$$$$$$$$$$$$##+ %%%%%%%%",
"%$$$$$$$$$$$$$$$$$$$$$$$$$o%%%%%%",
"%$$$$$$$$$$$$$$$$$$$$$$$$$$$%%%%%",
"%$$$$$$$$$$$$$$$$$$$$$$$$$$$+%%%%",
"%$$$$$$$$$$$$$$$$$$$$$$$$$$$$O%%%",
"%$$$$$$$$$$$$$$$$$$$$$$$$$$$$$%%%",
"%$$$$$$$$$$$$$$$$$$$$$$$$$$$$$%%%",
"%$$$$$$$$$$%%%%%%%%.$$$$$$$$$$%%%",
"%$$$$$$$$$$%%%%%%%%%$$$$$$$$$$%%%",
"%$$$$$$$$$$%%%%%%%%%$$$$$$$$$#%%%",
"%$$$$$$$$$$%%%%%%%%$$$$$$$$$$%%%%",
"%$$$$$$$$$$$$$$$$$$$$$$$$$$$o%%%%",
"%$$$$$$$$$$$$$$$$$$$$$$$$$o%%%%%%",
"%$$$$$$$$$$$$$$$$$$$$$$$X%%%%%%%%",
"%$$$$$$$$$$$$$$$$$$$$$$$$#@%%%%%%",
"%$$$$$$$$$$$$$$$$$$$$$$$$$$$.%%%%",
"%$$$$$$$$$$$$$$$$$$$$$$$$$$$$X%%%",
"%$$$$$$$$$$%%%%%%%%%o$$$$$$$$$+%%",
"%$$$$$$$$$$%%%%%%%%%%X$$$$$$$$#%%",
"%$$$$$$$$$$%%%%%%%%%%.$$$$$$$$$%%",
"%$$$$$$$$$$%%%%%%%%%%#$$$$$$$$$%%",
"%$$$$$$$$$$%%%%%%%%%.$$$$$$$$$$%%",
"%$$$$$$$$$$$$$$$$$$$$$$$$$$$$$$%%",
"%$$$$$$$$$$$$$$$$$$$$$$$$$$$$$o%%",
"%$$$$$$$$$$$$$$$$$$$$$$$$$$$$o%%%",
"%$$$$$$$$$$$$$$$$$$$$$$$$$$$o%%%%",
"%$$$$$$$$$$$$$$$$$$$$$$$$$$X%%%%%",
"%$$$$$$$$$$$$$$$$$$$#X@X+%%%%%%%%"
};
