/* XPM */
static char *c[] = {
/* columns rows colors chars-per-pixel */
"33 28 13 1 ",
"  c #DDC310",
". c #DDC311",
"X c #DFC210",
"o c #DEC310",
"O c #DFC310",
"+ c #DEC211",
"@ c #DEC311",
"# c #DFC311",
"$ c #DEC410",
"% c #DFC410",
"& c #DEC411",
"* c #DFC411",
"= c None",
/* pixels */
"==============@&&&@***********&==",
"===========@******************&==",
"========@#********************&==",
"=======@**********************&==",
"======@***********************&==",
"=====O************************&==",
"====@*************************&==",
"====**************************&==",
"===%***********%=================",
"===**********$===================",
"===*********#====================",
"==.********* ====================",
"==&*********=====================",
"==$*********=====================",
"==@*********=====================",
"==&*********=====================",
"==o*********+====================",
"===*********O====================",
"===**********o===================",
"===o**********#X=================",
"====**************************&==",
"====%*************************&==",
"=====&************************&==",
"======O***********************&==",
"=======&**********************&==",
"========+$********************&==",
"==========@#******************&==",
"==============o&#o@***********&=="
};
