/* XPM */
static char *d[] = {
/* columns rows colors chars-per-pixel */
"33 28 10 1 ",
"  c #DDC310",
". c #DDC211",
"X c #DEC310",
"o c #DFC310",
"O c #DEC311",
"+ c #DFC311",
"@ c #DEC410",
"# c #DEC411",
"$ c #DFC411",
"% c None",
/* pixels */
"%$$$$$$$$$$$$$$$$Oo#+ %%%%%%%%%%%",
"%$$$$$$$$$$$$$$$$$$$$$$OX%%%%%%%%",
"%$$$$$$$$$$$$$$$$$$$$$$$$$+%%%%%%",
"%$$$$$$$$$$$$$$$$$$$$$$$$$$$%%%%%",
"%$$$$$$$$$$$$$$$$$$$$$$$$$$$o%%%%",
"%$$$$$$$$$$$$$$$$$$$$$$$$$$$$X%%%",
"%$$$$$$$$$$$$$$$$$$$$$$$$$$$$$%%%",
"%$$$$$$$$$%%%%%%%%#$$$$$$$$$$$+%%",
"%$$$$$$$$$%%%%%%%%%X$$$$$$$$$$$%%",
"%$$$$$$$$$%%%%%%%%%%#$$$$$$$$$$X%",
"%$$$$$$$$$%%%%%%%%%%.$$$$$$$$$$O%",
"%$$$$$$$$$%%%%%%%%%%%$$$$$$$$$$o%",
"%$$$$$$$$$%%%%%%%%%%%$$$$$$$$$$$%",
"%$$$$$$$$$%%%%%%%%%%%$$$$$$$$$$$%",
"%$$$$$$$$$%%%%%%%%%%%$$$$$$$$$$$%",
"%$$$$$$$$$%%%%%%%%%%%$$$$$$$$$$@%",
"%$$$$$$$$$%%%%%%%%%%%$$$$$$$$$$X%",
"%$$$$$$$$$%%%%%%%%%%O$$$$$$$$$$ %",
"%$$$$$$$$$%%%%%%%%%%o$$$$$$$$$$%%",
"%$$$$$$$$$%%%%%%%%%o$$$$$$$$$$$%%",
"%$$$$$$$$$%%%%%%%%#$$$$$$$$$$$$%%",
"%$$$$$$$$$$$$$$$$$$$$$$$$$$$$$%%%",
"%$$$$$$$$$$$$$$$$$$$$$$$$$$$$o%%%",
"%$$$$$$$$$$$$$$$$$$$$$$$$$$$$%%%%",
"%$$$$$$$$$$$$$$$$$$$$$$$$$$$%%%%%",
"%$$$$$$$$$$$$$$$$$$$$$$$$$O%%%%%%",
"%$$$$$$$$$$$$$$$$$$$$$$$X%%%%%%%%",
"%$$$$$$$$$$$$$$$$$OoOX@%%%%%%%%%%"
};
