/* XPM */
static char *g[] = {
/* columns rows colors chars-per-pixel */
"33 28 13 1 ",
"  c #DDC211",
". c #DDC311",
"X c #DEC310",
"o c #DFC310",
"O c #DEC211",
"+ c #DEC311",
"@ c #DFC311",
"# c #DDC411",
"$ c #DEC410",
"% c #DFC410",
"& c #DEC411",
"* c #DFC411",
"= c None",
/* pixels */
"==============+&&&+************==",
"===========&*******************==",
"=========**********************==",
"=======************************==",
"======*************************==",
"=====&*************************==",
"====%**************************==",
"====***************************==",
"===X**********$X=================",
"===**********$===================",
"===*********@====================",
"==+*********=====================",
"==%*********=====================",
"==$*********=====================",
"==o*********==========*********==",
"==%*********==========*********==",
"==.*********#=========*********==",
"===**********=========*********==",
"===@*********X========*********==",
"===+************o+O ==*********==",
"====***************************==",
"====$**************************==",
"=====**************************==",
"======o************************==",
"=======o***********************==",
"=========%*********************==",
"==========O&*******************==",
"==============X&@X+************=="
};
