/* XPM */
static char *j[] = {
/* columns rows colors chars-per-pixel */
"33 28 8 1 ",
"  c #DDC310",
". c #DEC310",
"X c #DFC310",
"o c #DEC311",
"O c #DEC410",
"+ c #DEC411",
"@ c #DFC411",
"# c None",
/* pixels */
"##############@@@@@@@@@@#########",
"##############@@@@@@@@@@#########",
"##############@@@@@@@@@@#########",
"##############@@@@@@@@@@#########",
"##############@@@@@@@@@@#########",
"##############@@@@@@@@@@#########",
"##############@@@@@@@@@@#########",
"##############@@@@@@@@@@#########",
"##############@@@@@@@@@##########",
"##############@@@@@@@@@##########",
"##############@@@@@@@@@##########",
"##############@@@@@@@@@##########",
"##############@@@@@@@@@##########",
"##############@@@@@@@@@##########",
"##############@@@@@@@@@##########",
"##############@@@@@@@@@##########",
"##############@@@@@@@@@##########",
"##############@@@@@@@@@##########",
"#############.@@@@@@@@@##########",
"############o@@@@@@@@@+##########",
"########@@@@@@@@@@@@@@o##########",
"########@@@@@@@@@@@@@@o##########",
"########@@@@@@@@@@@@@@ ##########",
"########@@@@@@@@@@@@@@###########",
"########@@@@@@@@@@@@@X###########",
"########@@@@@@@@@@@@ ############",
"########@@@@@@@@@@X##############",
"########@@@@@@@OX################"
};
