/* XPM */
static char *l[] = {
/* columns rows colors chars-per-pixel */
"33 28 2 1 ",
"  c #DFC411",
". c None",
/* pixels */
".....         ...................",
".....         ...................",
".....         ...................",
".....         ...................",
".....         ...................",
".....         ...................",
".....         ...................",
".....         ...................",
".....         ...................",
".....         ...................",
".....         ...................",
".....         ...................",
".....         ...................",
".....         ...................",
".....         ...................",
".....         ...................",
".....         ...................",
".....         ...................",
".....         ...................",
".....         ...................",
".....                        ....",
".....                        ....",
".....                        ....",
".....                        ....",
".....                        ....",
".....                        ....",
".....                        ....",
".....                        ...."
};
