/* XPM */
static char *n[] = {
/* columns rows colors chars-per-pixel */
"33 28 6 1 ",
"  c #DEC210",
". c #DEC310",
"X c #DEC311",
"o c #DEC410",
"O c #DFC411",
"+ c None",
/* pixels */
"+++OOOOOOOOO+++++++++OOOOOOOOO+++",
"+++OOOOOOOOOX++++++++OOOOOOOOO+++",
"+++OOOOOOOOOOo+++++++OOOOOOOOO+++",
"+++OOOOOOOOOOO.++++++OOOOOOOOO+++",
"+++OOOOOOOOOOOOX+++++OOOOOOOOO+++",
"+++OOOOOOOOOOOOO.++++OOOOOOOOO+++",
"+++OOOOOOOOOOOOOO +++OOOOOOOOO+++",
"+++OOOOOOOOOOOOOOO+++OOOOOOOOO+++",
"+++OOOOOOOOOOOOOOOX++OOOOOOOOO+++",
"+++OOOOOOOOOOOOOOOO.+OOOOOOOOO+++",
"+++OOOOOOOOOOOOOOOOOoOOOOOOOOO+++",
"+++OOOOOOOOOOOOOOOOOOOOOOOOOOO+++",
"+++OOOOOOOOOOOOOOOOOOOOOOOOOOO+++",
"+++OOOOOOOOOOOOOOOOOOOOOOOOOOO+++",
"+++OOOOOOOOOOOOOOOOOOOOOOOOOOO+++",
"+++OOOOOOOOOOOOOOOOOOOOOOOOOOO+++",
"+++OOOOOOOOOOOOOOOOOOOOOOOOOOO+++",
"+++OOOOOOOOOoOOOOOOOOOOOOOOOOO+++",
"+++OOOOOOOOO+.OOOOOOOOOOOOOOOO+++",
"+++OOOOOOOOO++XOOOOOOOOOOOOOOO+++",
"+++OOOOOOOOO+++OOOOOOOOOOOOOOO+++",
"+++OOOOOOOOO+++.OOOOOOOOOOOOOO+++",
"+++OOOOOOOOO++++oOOOOOOOOOOOOO+++",
"+++OOOOOOOOO+++++OOOOOOOOOOOOO+++",
"+++OOOOOOOOO++++++.OOOOOOOOOOO+++",
"+++OOOOOOOOO+++++++oOOOOOOOOOO+++",
"+++OOOOOOOOO++++++++XOOOOOOOOO+++",
"+++OOOOOOOOO+++++++++OOOOOOOOO+++"
};
