/* XPM */
static char *o[] = {
/* columns rows colors chars-per-pixel */
"33 28 13 1 ",
"  c #DDC310",
". c #DDC311",
"X c #DFC210",
"o c #DEC310",
"O c #DFC310",
"+ c #DEC311",
"@ c #DFC311",
"# c #DDC410",
"$ c #DEC410",
"% c #DFC410",
"& c #DEC411",
"* c #DFC411",
"= c None",
/* pixels */
"=========$*************$o========",
"=======*******************&======",
"===== *********************+=====",
"====@************************====",
"===+*************************$===",
"===***************************+==",
"==O****************************==",
"==***********o======O**********o=",
"=#**********=========o**********=",
"=%*********o==========**********=",
" **********===========+********* ",
"o*********$============*********o",
"**********&============**********",
"**********X============**********",
"@*********%============*********@",
"**********+============**********",
"o**********============*********o",
"&**********============*********&",
"=O*********o==========%*********=",
"=O**********=========o**********=",
"==**********+.======@**********+=",
"==o****************************==",
"===***************************o==",
"===o*************************@===",
"====O***********************+====",
"=====**********************%=====",
"=======&******************O======",
"=========+*************@+========"
};
