/* XPM */
static char *p[] = {
/* columns rows colors chars-per-pixel */
"33 28 12 1 ",
"  c #DDC311",
". c #DEC210",
"X c #DFC210",
"o c #DEC310",
"O c #DFC310",
"+ c #DEC211",
"@ c #DEC311",
"# c #DFC311",
"$ c #DFC410",
"% c #DEC411",
"& c #DFC411",
"* c None",
/* pixels */
"***&&&&&&&&&&&&&&&&&&O@o*********",
"***&&&&&&&&&&&&&&&&&&&&&&o*******",
"***&&&&&&&&&&&&&&&&&&&&&&&&X*****",
"***&&&&&&&&&&&&&&&&&&&&&&&&&o****",
"***&&&&&&&&&&&&&&&&&&&&&&&&&&****",
"***&&&&&&&&&&&&&&&&&&&&&&&&&&@***",
"***&&&&&&&&&&&&&&&&&&&&&&&&&&&***",
"***&&&&&&&&&&********o&&&&&&&&***",
"***&&&&&&&&&&*********&&&&&&&&.**",
"***&&&&&&&&&&*********&&&&&&&&o**",
"***&&&&&&&&&&*********&&&&&&&&#**",
"***&&&&&&&&&&******** &&&&&&&&+**",
"***&&&&&&&&&&&&&&&&&&&&&&&&&&&***",
"***&&&&&&&&&&&&&&&&&&&&&&&&&&$***",
"***&&&&&&&&&&&&&&&&&&&&&&&&&&****",
"***&&&&&&&&&&&&&&&&&&&&&&&&&o****",
"***&&&&&&&&&&&&&&&&&&&&&&&&O*****",
"***&&&&&&&&&&&&&&&&&&&&&&#*******",
"***&&&&&&&&&&&&&&&&&&&%#*********",
"***&&&&&&&&&&********************",
"***&&&&&&&&&&********************",
"***&&&&&&&&&&********************",
"***&&&&&&&&&&********************",
"***&&&&&&&&&&********************",
"***&&&&&&&&&&********************",
"***&&&&&&&&&&********************",
"***&&&&&&&&&&********************",
"***&&&&&&&&&&********************"
};
