/* XPM */
static char *q[] = {
/* columns rows colors chars-per-pixel */
"33 28 14 1 ",
"  c #DDC211",
". c #DDC311",
"X c #DEC210",
"o c #DEC310",
"O c #DFC310",
"+ c #DEC211",
"@ c #DEC311",
"# c #DFC311",
"$ c #DDC410",
"% c #DEC410",
"& c #DFC410",
"* c #DEC411",
"= c #DFC411",
"- c None",
/* pixels */
"--------.O============%#---------",
"------o@=================#-------",
"-----&=====================+-----",
"----========================%----",
"---@=========================@---",
"--%==========================#---",
"--=============================--",
"-@===========@------*=========O--",
"-==========@---------*=========--",
"-==========o----------=========--",
"o==========-----------=========--",
"%=========*------------========.-",
"o=========o------------========X-",
"*=========o------------========--",
"*=========*------------========--",
"o=========*------------=======&--",
".=========#------------=======---",
"-==========----------- ======o---",
"-==========@----------=======----",
"-o==========o----=@%O========@*#-",
"--===========@*+================-",
"--@=============================-",
"---*============================-",
"----============================-",
"-----===========================-",
"------@=========================-",
"--------@=======================-",
"-----------$#&O@%*OO&OOO*o@o+o@%-"
};
