/* XPM */
static char *r[] = {
/* columns rows colors chars-per-pixel */
"33 28 10 1 ",
"  c #DEC310",
". c #DFC310",
"X c #DEC311",
"o c #DFC311",
"O c #DDC410",
"+ c #DEC410",
"@ c #DFC410",
"# c #DEC411",
"$ c #DFC411",
"% c None",
/* pixels */
"%%% $$$$$$$$$$$$$$$$$$XX%%%%%%%%%",
"%%% $$$$$$$$$$$$$$$$$$$$$$O%%%%%%",
"%%% $$$$$$$$$$$$$$$$$$$$$$$+%%%%%",
"%%% $$$$$$$$$$$$$$$$$$$$$$$$o%%%%",
"%%% $$$$$$$$$$$$$$$$$$$$$$$$$$%%%",
"%%% $$$$$$$$$$$$$$$$$$$$$$$$$X%%%",
"%%% $$$$$$$$$$$$$$$$$$$$$$$$$$%%%",
"%%% $$$$$$$$$%%%%%%%%%$$$$$$$$ %%",
"%%% $$$$$$$$$%%%%%%%%%#$$$$$$$#%%",
"%%% $$$$$$$$$%%%%%%%%%X$$$$$$$+%%",
"%%% $$$$$$$$$%%%%%%%%%#$$$$$$$ %%",
"%%% $$$$$$$$$%%%%%%%%%.$$$$$$$%%%",
"%%% $$$$$$$$$@XXXXXX+#$$$$$$$ %%%",
"%%% $$$$$$$$$$$$$$$$$$$$$$$$$%%%%",
"%%% $$$$$$$$$$$$$$$$$$$$$$$$ %%%%",
"%%% $$$$$$$$$$$$$$$$$$$$$$#%%%%%%",
"%%% $$$$$$$$$$$$$$$$$$$$.%%%%%%%%",
"%%% $$$$$$$$$$$$$$$$$$X%%%%%%%%%%",
"%%% $$$$$$$$$+$$$$$$$$$X%%%%%%%%%",
"%%% $$$$$$$$$%.$$$$$$$$$X%%%%%%%%",
"%%% $$$$$$$$$%%$$$$$$$$$$$$$$$$$%",
"%%% $$$$$$$$$%%% $$$$$$$$$$$$$$$%",
"%%% $$$$$$$$$%%%%X$$$$$$$$$$$$$$%",
"%%% $$$$$$$$$%%%%%@$$$$$$$$$$$$$%",
"%%% $$$$$$$$$%%%%%%+$$$$$$$$$$$$%",
"%%% $$$$$$$$$%%%%%%%$$$$$$$$$$$$%",
"%%% $$$$$$$$$%%%%%%%%#$$$$$$$$$$%",
"%%% $$$$$$$$$%%%%%%%%%@$$$$$$$$$%"
};
