/* XPM */
static char *s[] = {
/* columns rows colors chars-per-pixel */
"33 28 13 1 ",
"  c #DDC210",
". c #DDC310",
"X c #DDC311",
"o c #DEC310",
"O c #DFC310",
"+ c #DEC211",
"@ c #DEC311",
"# c #DFC311",
"$ c #DEC410",
"% c #DFC410",
"& c #DEC411",
"* c #DFC411",
"= c None",
/* pixels */
"===========@&$*************======",
"==========@****************======",
"=========******************======",
"========&******************======",
"========*******************======",
"========*******************======",
"=======O*******************======",
"=======+*******************======",
"========***********$=============",
"========#**********O=============",
"========X***********o============",
"=========#***********o===========",
"=========@************O==========",
"==========$************%=========",
"===========&************=========",
"============$***********&========",
"=============o***********O=======",
"==============%***********=======",
"===============***********.======",
"===============#**********O======",
"======*********************======",
"======*********************======",
"======*********************======",
"======*********************======",
"======******************** ======",
"======*******************#=======",
"======******************@========",
"======***************O#=========="
};
