/* XPM */
static char *u[] = {
/* columns rows colors chars-per-pixel */
"33 28 11 1 ",
"  c #DEC210",
". c #DEC310",
"X c #DFC310",
"o c #DEC311",
"O c #DFC311",
"+ c #DDC410",
"@ c #DEC410",
"# c #DFC410",
"$ c #DEC411",
"% c #DFC411",
"& c None",
/* pixels */
"&&&%%%%%%%%%&&&&&&&&&&%%%%%%%%%&&",
"&&&%%%%%%%%%&&&&&&&&&&%%%%%%%%%&&",
"&&&%%%%%%%%%&&&&&&&&&&%%%%%%%%%&&",
"&&&%%%%%%%%%&&&&&&&&&&%%%%%%%%%&&",
"&&&%%%%%%%%%&&&&&&&&&&%%%%%%%%%&&",
"&&&%%%%%%%%%&&&&&&&&&&%%%%%%%%%&&",
"&&&%%%%%%%%%&&&&&&&&&&%%%%%%%%%&&",
"&&&%%%%%%%%%&&&&&&&&&&%%%%%%%%%&&",
"&&&%%%%%%%%%&&&&&&&&&&%%%%%%%%%&&",
"&&&%%%%%%%%%&&&&&&&&&&%%%%%%%%%&&",
"&&&%%%%%%%%%&&&&&&&&&&%%%%%%%%%&&",
"&&&%%%%%%%%%&&&&&&&&&&%%%%%%%%%&&",
"&&&%%%%%%%%%&&&&&&&&&&%%%%%%%%%&&",
"&&&%%%%%%%%%&&&&&&&&&&%%%%%%%%%&&",
"&&&%%%%%%%%%&&&&&&&&&&%%%%%%%%%&&",
"&&&%%%%%%%%%&&&&&&&&&&%%%%%%%%%&&",
"&&&%%%%%%%%%&&&&&&&&&&%%%%%%%%%&&",
"&&&O%%%%%%%%&&&&&&&&&&%%%%%%%%#&&",
"&&&%%%%%%%%%&&&&&&&&&&%%%%%%%%O&&",
"&&&O%%%%%%%%&&&&&&&&&&%%%%%%%%$&&",
"&&& %%%%%%%%.&&&&&&&&$%%%%%%%%O&&",
"&&&&%%%%%%%%%X&&&&& @%%%%%%%%%&&&",
"&&&&X%%%%%%%%%%%%%%%%%%%%%%%%o&&&",
"&&&&&%%%%%%%%%%%%%%%%%%%%%%%@&&&&",
"&&&&&+%%%%%%%%%%%%%%%%%%%%%%&&&&&",
"&&&&&& %%%%%%%%%%%%%%%%%%%%&&&&&&",
"&&&&&&&&X%%%%%%%%%%%%%%%%.&&&&&&&",
"&&&&&&&&&&X%%%%%%%%%%%%%&&&&&&&&&"
};
