/* XPM */
static char *v[] = {
/* columns rows colors chars-per-pixel */
"33 28 14 1 ",
"  c #DDC210",
". c #DDC211",
"X c #DEC310",
"o c #DFC310",
"O c #DEC211",
"+ c #DEC311",
"@ c #DFC311",
"# c #DDC410",
"$ c #DDC411",
"% c #DEC410",
"& c #DFC410",
"* c #DEC411",
"= c #DFC411",
"- c None",
/* pixels */
"==========-------------*========-",
"==========%------------=========-",
"+=========*-----------X=========-",
"-==========-----------o=========-",
"-o=========o----------==========-",
"-#=========X---------O==========-",
"--==========---------*==========-",
"--X=========---------==========X-",
"-- =========*--------==========--",
"---=========@-------X=========&--",
"---X=========-------+=========+--",
"----=========+------==========---",
"----==========-----+=========%---",
"----%=========-----&========= ---",
"-----=========.----==========----",
"-----=========o---$=========%----",
"-----%=========---o=========-----",
"------=========---=========+-----",
"------X========%--=========@-----",
"------X=========-o=========------",
"-------=========-+=========------",
"-------+========+=========+------",
"-------X==================-------",
"--------=================*-------",
"--------@================%-------",
"--------X================--------",
"---------===============@--------",
"---------===============.--------"
};
