/* XPM */
static char *w[] = {
/* columns rows colors chars-per-pixel */
"33 28 17 1 ",
"  c #DDC310",
". c #DDC311",
"X c #DEC310",
"o c #DFC310",
"O c #DEC311",
"+ c #DFC311",
"@ c #DEC410",
"# c #DFC410",
"$ c #DFC510",
"% c #DEC411",
"& c #DFC411",
"* c #DFC511",
"= c #E0C410",
"- c #E0C510",
"; c #E0C411",
": c #E0C511",
"> c None",
/* pixels */
":&&&&&#>>>>>>+&&&&&:&>>>>>O:&&&&&",
":&&&&&:>>>>>>&&&&&&&&>>>>> :&&&&&",
":&&&&&:>>>>>>&&&&&&:&>>>>>=&&&&&&",
":&&&&&:+>>>>O&&&&&&&:*>>>>:&&&&&&",
":&&&&&&#>>>>%:&&&&&&&&>>>>&&&&&&&",
":&&&&&&&>>>>&:&&&&&&&;>>>#&&&&&&&",
"#:&&&&&:.>>>&&&&&&&&&&>>>;&&&&&&&",
">&&&&&&&#>>&&&&&&&&&&:#>>@;&&&&&O",
">:&&&&&&:>>&&&&&&&&&&&*>>&&&&&&:*",
">=&&&&&&&>>o:&&&&&&&&&&>>&&&&&&&>",
">;&&&&&&:*>&&&&&&&&&&&&;&:&&&&&:>",
">>:&&&&&&&@;&&&&&&&&&&&XX&&&&&&;>",
">>#:&&&&&&&&&&&&&&&&&&&&&&&&&&&X>",
">>#;&&&&&&&&&&&&&&&&&&&&&&&&&&:=>",
">>>&&&&&&&&&&&&&&&&&&&&&&&&&&&&>>",
">>>#:&&&&&&&&&&&&&&&&&&&&&&&&&;>>",
">>>@&&&&&&&&&&&&&;:&&&&&&&&&&&->>",
">>>&:&&&&&&&&&&& %&&&&&&&&&&&&&>>",
">>>>*&&&&&&&&&&&>>:&&&&&&&&&&&>>>",
">>>>&&&&&&&&&&&&>>#:&&&&&&&&&;>>>",
">>>>&:&&&&&&&&&&>>&&&&&&&&&&&;>>>",
">>>>&:&&&&&&&&&@>>>:&&&&&&&&:&>>>",
">>>>>&&&&&&&&&:@>>>&&&&&&&&&:>>>>",
">>>>>&&&&&&&&&;>>>>#&&&&&&&;&>>>>",
">>>>>&:&&&&&&&:>>>>#&&&&&&&&&>>>>",
">>>>>$:&&&&&&:@>>>>>:&&&&&&:&>>>>",
">>>>>>&&&&&&&&&>>>>>&:&&&&&;>>>>>",
">>>>>>&:&&&&&:>>>>>>&&&&&&&:>>>>>"
};
