/* XPM */
static char *x[] = {
/* columns rows colors chars-per-pixel */
"33 28 14 1 ",
"  c #DDC211",
". c #DDC311",
"X c #DEC210",
"o c #DEC310",
"O c #DFC310",
"+ c #DEC311",
"@ c #DFC311",
"# c #DDC410",
"$ c #DDC411",
"% c #DEC410",
"& c #DFC410",
"* c #DEC411",
"= c #DFC411",
"- c None",
/* pixels */
"---=======+-----------=========--",
"---========o---------O=========--",
"---========+--------o==========--",
"---=========+-------*=========*--",
"---==========X-----o=========O---",
"---==========+----#=========*----",
"----&=========*---+=========-----",
"-----O=========$-&=========*-----",
"------+========+&=========@------",
"------ ==================+-------",
"-------O=================.-------",
"--------+===============o--------",
"---------==============*---------",
"---------+=============----------",
"---------+=============----------",
"---------==============+---------",
"--------+===============%--------",
"-------O=================.-------",
"------ ==================+-------",
"------+========+&=========@------",
"-----O=========$-==========*-----",
"----&=========+---+=========-----",
"----=========+----#=========*----",
"---==========X-----o=========O---",
"---=========+-------*==========--",
"---========+--------o==========--",
"---========o---------O=========--",
"---=======@-----------=========--"
};
