/* XPM */
static char *y[] = {
/* columns rows colors chars-per-pixel */
"33 28 9 1 ",
"  c #DEC310",
". c #DFC310",
"X c #DEC311",
"o c #DFC311",
"O c #DEC410",
"+ c #DFC410",
"@ c #DEC411",
"# c #DFC411",
"$ c None",
/* pixels */
"$$########o$$$$$$$$$$$o#########$",
"$$#########o$$$$$$$$$@##########$",
"$$##########$$$$$$$$$##########o$",
"$$+######### $$$$$$$########## $$",
"$$$##########o$$$$$.##########$$$",
"$$$$##########$$$$$##########$$$$",
"$$$$O#########.$$$O######### $$$$",
"$$$$$O######### $ #########O$$$$$",
"$$$$$$##########.##########$$$$$$",
"$$$$$$ ################### $$$$$$",
"$$$$$$$###################$$$$$$$",
"$$$$$$$$#################$$$$$$$$",
"$$$$$$$$X###############X$$$$$$$$",
"$$$$$$$$$o#############o$$$$$$$$$",
"$$$$$$$$$$X###########X$$$$$$$$$$",
"$$$$$$$$$$.########### $$$$$$$$$$",
"$$$$$$$$$$$.##########$$$$$$$$$$$",
"$$$$$$$$$$$$#########$$$$$$$$$$$$",
"$$$$$$$$$$$$#########$$$$$$$$$$$$",
"$$$$$$$$$$$$#########$$$$$$$$$$$$",
"$$$$$$$$$$$$#########$$$$$$$$$$$$",
"$$$$$$$$$$$$#########$$$$$$$$$$$$",
"$$$$$$$$$$$$#########$$$$$$$$$$$$",
"$$$$$$$$$$$$#########$$$$$$$$$$$$",
"$$$$$$$$$$$$#########$$$$$$$$$$$$",
"$$$$$$$$$$$$#########$$$$$$$$$$$$",
"$$$$$$$$$$$$#########$$$$$$$$$$$$",
"$$$$$$$$$$$$#########$$$$$$$$$$$$"
};
