/* XPM */
static char *z[] = {
/* columns rows colors chars-per-pixel */
"33 28 10 1 ",
"  c #DDC310",
". c #DDC211",
"X c #DEC310",
"o c #DEC211",
"O c #DEC311",
"+ c #DFC311",
"@ c #DEC410",
"# c #DEC411",
"$ c #DFC411",
"% c None",
/* pixels */
"%%%%%$$$$$$$$$$$$$$$$$$$$$$$$$O%%",
"%%%%%$$$$$$$$$$$$$$$$$$$$$$$$$O%%",
"%%%%%$$$$$$$$$$$$$$$$$$$$$$$$$O%%",
"%%%%%$$$$$$$$$$$$$$$$$$$$$$$$$O%%",
"%%%%%$$$$$$$$$$$$$$$$$$$$$$$$$O%%",
"%%%%%$$$$$$$$$$$$$$$$$$$$$$$$$O%%",
"%%%%%$$$$$$$$$$$$$$$$$$$$$$$$$O%%",
"%%%%%$$$$$$$$$$$$$$$$$$$$$$$$$O%%",
"%%%%%%%%%%%%%%%%%%$$$$$$$$$$$$%%%",
"%%%%%%%%%%%%%%%%%+$$$$$$$$$$X%%%%",
"%%%%%%%%%%%%%%%.$$$$$$$$$$$#%%%%%",
"%%%%%%%%%%%%%% $$$$$$$$$$$o%%%%%%",
"%%%%%%%%%%%%%#$$$$$$$$$$O%%%%%%%%",
"%%%%%%%%%%%%X$$$$$$$$$$$%%%%%%%%%",
"%%%%%%%%%%%@$$$$$$$$$$O%%%%%%%%%%",
"%%%%%%%%%%O$$$$$$$$$$O%%%%%%%%%%%",
"%%%%%%%%o$$$$$$$$$$$#%%%%%%%%%%%%",
"%%%%%%%#$$$$$$$$$$$X%%%%%%%%%%%%%",
"%%%%%%+$$$$$$$$$$$@%%%%%%%%%%%%%%",
"%%%%%#$$$$$$$$$$$%%%%%%%%%%%%%%%%",
"%%%%%$$$$$$$$$$$$$$$$$$$$$$$$$O%%",
"%%%%%$$$$$$$$$$$$$$$$$$$$$$$$$O%%",
"%%%%%$$$$$$$$$$$$$$$$$$$$$$$$$O%%",
"%%%%%$$$$$$$$$$$$$$$$$$$$$$$$$O%%",
"%%%%%$$$$$$$$$$$$$$$$$$$$$$$$$O%%",
"%%%%%$$$$$$$$$$$$$$$$$$$$$$$$$O%%",
"%%%%%$$$$$$$$$$$$$$$$$$$$$$$$$O%%",
"%%%%%$$$$$$$$$$$$$$$$$$$$$$$$$O%%"
};
