/* XPM */
static char *_[] = {
/* columns rows colors chars-per-pixel */
"22 17 10 1 ",
"  c #DFC30F",
". c #DFC40F",
"X c #DFC50F",
"o c #DFC410",
"O c #DFC510",
"+ c #E0C40F",
"@ c #E0C50F",
"# c #E0C410",
"$ c #E0C510",
"% c None",
/* pixels */
"%%%%%%%%.@@Xo.%%%%%%%%",
"%%%%%%#$$$$$$$$#%%%%%%",
"%%%%%o$$$$$$$$$$O%%%%%",
"%%%%.$$$$$$$$$$$$.%%%%",
"%%%@$$$$$ %%o$$$$$%%%%",
"%%%$$$$$o%%%%$$$$$+%%%",
"%%%$$$$$+%%%%$$$$$#%%%",
"%%%$$$$$o%%%%$$$$$$%%%",
"%%%$$$$$$%%%%$$$$$$%%%",
"%%%$$$$$o%%%%$$$$$$%%%",
"%%%$$$$$O%%%%$$$$$o%%%",
"%%%X$$$$$%%%%$$$$$.%%%",
"%%%.$$$$$O%%+$$$$$%%%%",
"%%%%X$$$$$$$$$$$$o%%%%",
"%%%%%o$$$$$$$$$$.%%%%%",
"%%%%%%#$$$$$$$$+%%%%%%",
"%%%%%%%%O+##@+%%%%%%%%"
};
