/* XPM */
static char *_[] = {
/* columns rows colors chars-per-pixel */
"22 17 7 1 ",
"  c #DFC40F",
". c #DFC510",
"X c #E0C40F",
"o c #E0C50F",
"O c #E0C410",
"+ c #E0C510",
"@ c None",
/* pixels */
"@@@@@@@@@O+++++@@@@@@@",
"@@@@@@@@X++++++@@@@@@@",
"@@@@@@o++++++++@@@@@@@",
"@@@@@ +++++++++@@@@@@@",
"@@@@+++++++++++@@@@@@@",
"@@@@X++++++++++@@@@@@@",
"@@@@@++o@ +++++@@@@@@@",
"@@@@@.X@@ +++++@@@@@@@",
"@@@@@@@@@ +++++@@@@@@@",
"@@@@@@@@@ +++++@@@@@@@",
"@@@@@@@@@ +++++@@@@@@@",
"@@@@@@@@@ +++++@@@@@@@",
"@@@@@@@@@ +++++@@@@@@@",
"@@@@@@@@@ +++++@@@@@@@",
"@@@@@@@@@ +++++@@@@@@@",
"@@@@@@@@@ +++++@@@@@@@",
"@@@@@@@@@ +++++@@@@@@@"
};
