/* XPM */
static char *_[] = {
/* columns rows colors chars-per-pixel */
"22 17 11 1 ",
"  c #DFC40F",
". c #DFC50F",
"X c #DFC310",
"o c #DFC410",
"O c #DFC510",
"+ c #E0C40F",
"@ c #E0C50F",
"# c #E0C310",
"$ c #E0C410",
"% c #E0C510",
"& c None",
/* pixels */
"&&&& $%$@$o%#&&&&&&&&&",
"&&&&%%%%%%%%%%o&&&&&&&",
"&&&&%%%%%%%%%%% &&&&&&",
"&&&&%%%%%%%%%%%%&&&&&&",
"&&&& &&&&&O%%%%%o&&&&&",
"&&&&&&&&&&X%%%%%+&&&&&",
"&&&&&&&&&&&%%%%%@&&&&&",
"&&&&&&&&&& %%%%%&&&&&&",
"&&&&&&&&&&o%%%%.&&&&&&",
"&&&&&&&&$%%%%%+&&&&&&&",
"&&&&&&&O%%%%%+&&&&&&&&",
"&&&&& %%%%% &&&&&&&&&&",
"&&&&%%%%%o@&&&&&&&&&&&",
"&&&&%%%%%%%%%%%%$&&&&&",
"&&&&%%%%%%%%%%%%$&&&&&",
"&&&&%%%%%%%%%%%%$&&&&&",
"&&&&%%%%%%%%%%%%$&&&&&"
};
