/* XPM */
static char *_[] = {
/* columns rows colors chars-per-pixel */
"22 17 14 1 ",
"  c #DEC30F",
". c #DFC30F",
"X c #DFC40F",
"o c #DEC50F",
"O c #DFC50F",
"+ c #DFC410",
"@ c #DEC510",
"# c #DFC510",
"$ c #E0C40F",
"% c #E0C50F",
"& c #E0C310",
"* c #E0C410",
"= c #E0C510",
"- c None",
/* pixels */
"--------X$O#O*X+------",
"------X=========------",
"-----*==========------",
"----$===========------",
"---*=====X------------",
"---======-------------",
"---=====X&+XX$+-------",
"--+============X------",
"--*=============*-----",
"--#=====.--@=====#----",
"---====#----=====O----",
"---====*----=====*----",
"---$====X--o=====+----",
"----=============X----",
"----O===========*-----",
"------X========o------",
"--------X##+% --------"
};
