/* XPM */
static char *_[] = {
/* columns rows colors chars-per-pixel */
"22 17 10 1 ",
"  c #DFC40F",
". c #DFC50F",
"X c #DFC410",
"o c #DEC510",
"O c #DFC510",
"+ c #E0C40F",
"@ c #E0C50F",
"# c #E0C410",
"$ c #E0C510",
"% c None",
/* pixels */
"%%%% $$$$$$$$$$$$X%%%%",
"%%%% $$$$$$$$$$$$X%%%%",
"%%%% $$$$$$$$$$$$X%%%%",
"%%%% $$$$$$$$$$$$X%%%%",
"%%%% $$$$$$$$$$$$X%%%%",
"%%%%%%%%%%%%$$$$$X%%%%",
"%%%%%%%%%%%.$$$$X%%%%%",
"%%%%%%%%%%o$$$$$X%%%%%",
"%%%%%%%%%%$$$$$X%%%%%%",
"%%%%%%%%%.$$$$$X%%%%%%",
"%%%%%%%%%$$$$$X%%%%%%%",
"%%%%%%%%+$$$$$o%%%%%%%",
"%%%%%%% $$$$$X%%%%%%%%",
"%%%%%%%$$$$$$#%%%%%%%%",
"%%%%%%@$$$$$X%%%%%%%%%",
"%%%%%%$$$$$$#%%%%%%%%%",
"%%%%%O$$$$$X%%%%%%%%%%"
};
