/* XPM */
static char *_[] = {
/* columns rows colors chars-per-pixel */
"22 17 13 1 ",
"  c #DFC30F",
". c #DEC40F",
"X c #DFC40F",
"o c #DFC50F",
"O c #DFC410",
"+ c #DEC510",
"@ c #DFC510",
"# c #E0C30F",
"$ c #E0C40F",
"% c #E0C50F",
"& c #E0C410",
"* c #E0C510",
"= c None",
/* pixels */
"======O&@@@& =========",
"====OO*******&#=======",
"===$***********O======",
"===*************======",
"==X*****&== *****=====",
"==X*****====&****=====",
"==X*****====@****O====",
"== *****+== *****&====",
"===o*************X====",
"====O************$====",
"=====XXo&$X.*****#====",
"===========&*****=====",
"==========O*****$=====",
"====***********&======",
"====**********O=======",
"====*********X========",
"==== @o%@%@@=========="
};
