/* XPM */
static char *b[] = {
/* columns rows colors chars-per-pixel */
"22 17 9 1 ",
"  c #DEC30F",
". c #DFC50F",
"X c #DFC410",
"o c #DFC510",
"O c #E0C40F",
"+ c #E0C50F",
"@ c #E0C410",
"# c #E0C510",
"$ c None",
/* pixels */
"$$$###########XO@ $$$$",
"$$$################$$$",
"$$$################o$$",
"$$$#################$$",
"$$$######$$$$$@#####$$",
"$$$######$$$$$O#####$$",
"$$$######$$$$$o####@$$",
"$$$###############o$$$",
"$$$##############O$$$$",
"$$$################$$$",
"$$$################X$$",
"$$$######$$$$$$X####+$",
"$$$######$$$$$$O#####$",
"$$$######$$$$$$######$",
"$$$#################O$",
"$$$################+$$",
"$$$###########o.o@$$$$"
};
