/* XPM */
static char *c[] = {
/* columns rows colors chars-per-pixel */
"22 17 9 1 ",
"  c #DFC40F",
". c #DFC410",
"X c #DEC510",
"o c #DFC510",
"O c #E0C40F",
"+ c #E0C50F",
"@ c #E0C410",
"# c #E0C510",
"$ c None",
/* pixels */
"$$$$$$$$. O########$$$",
"$$$$$$+############$$$",
"$$$$$.#############$$$",
"$$$$###############$$$",
"$$$################$$$",
"$$$######@$$$$$$$$$$$$",
"$$.##### $$$$$$$$$$$$$",
"$$.#####$$$$$$$$$$$$$$",
"$$.#####$$$$$$$$$$$$$$",
"$$o#####$$$$$$$$$$$$$$",
"$$+##### $$$$$$$$$$$$$",
"$$$######X$$$$$$$$$$$$",
"$$$O###############$$$",
"$$$$###############$$$",
"$$$$$@#############$$$",
"$$$$$$ ############$$$",
"$$$$$$$$  @ #######$$$"
};
