/* XPM */
static char *d[] = {
/* columns rows colors chars-per-pixel */
"22 17 8 1 ",
"  c #DFC40F",
". c #DFC50F",
"X c #DFC410",
"o c #DEC510",
"O c #DFC510",
"+ c #E0C50F",
"@ c #E0C510",
"# c None",
/* pixels */
"##@@@@@@@@@@  .#######",
"##@@@@@@@@@@@@@@ #####",
"##@@@@@@@@@@@@@@@@X###",
"##@@@@@@@@@@@@@@@@@###",
"##@@@@@@#####O@@@@@.##",
"##@@@@@@######+@@@@@##",
"##@@@@@@######X@@@@@##",
"##@@@@@@#######@@@@@##",
"##@@@@@@#######@@@@@##",
"##@@@@@@#######@@@@@##",
"##@@@@@@######X@@@@@##",
"##@@@@@@######+@@@@@##",
"##@@@@@@#####.@@@@@@##",
"##@@@@@@@@@@@@@@@@@###",
"##@@@@@@@@@@@@@@@@o###",
"##@@@@@@@@@@@@@@XX####",
"##@@@@@@@@@@+O..######"
};
