/* XPM */
static char *dot[] = {
/* columns rows colors chars-per-pixel */
"22 17 11 1 ",
"  c #DEC40E",
". c #DEC50E",
"X c #DEC40F",
"o c #DFC40F",
"O c #E0C40E",
"+ c #E0C50E",
"@ c #E1C40F",
"# c #E0C50F",
"$ c #E0C410",
"% c #E0C510",
"& c None",
/* pixels */
"&&&&&&&&&&&&&&&&&&&&&&",
"&&&&&&&&&&&&&&&&&&&&&&",
"&&&&&&&&&&&&&&&&&&&&&&",
"&&&&&&&&&&&&&&&&&&&&&&",
"&&&&&&&&&&&&&&&&&&&&&&",
"&&&&&&&&&&&&&&&&&&&&&&",
"&&&&&&&&&&&&&&&&&&&&&&",
"&&&&&&&&&&&&&&&&&&&&&&",
"&&&&&&&&&&&&&&&&&&&&&&",
"&&&&&&&&&&&&&&&&&&&&&&",
"&&&&&&&&&&&&&&&&&&&&&&",
"&&&&&&&&&&&&&&&&&&&&&&",
"&&&&&&&&&&&&&&&&&&&&&&",
"&&ooo&&&ooO&&+ooX&&&&&",
"&&%%.&&@%%O&&O%%o&&&&&",
"&&%%.&&@%%O&&O%%o&&&&&",
"&&$$ &&&$$o&&#$$&&&&&&"
};
