/* XPM */
static char *e[] = {
/* columns rows colors chars-per-pixel */
"22 17 3 1 ",
"  c #E0C50F",
". c #E0C510",
"X c None",
/* pixels */
"XXX...............XXXX",
"XXX...............XXXX",
"XXX...............XXXX",
"XXX...............XXXX",
"XXX...............XXXX",
"XXX......XXXXXXXXXXXXX",
"XXX......XXXXXXXXXXXXX",
"XXX........... XXXXXXX",
"XXX........... XXXXXXX",
"XXX........... XXXXXXX",
"XXX......XXXXXXXXXXXXX",
"XXX......XXXXXXXXXXXXX",
"XXX................XXX",
"XXX................XXX",
"XXX................XXX",
"XXX................XXX",
"XXX................XXX"
};
