/* XPM */
static char *i[] = {
/* columns rows colors chars-per-pixel */
"10 17 2 1 ",
"  c #E0C510",
". c None",
/* pixels */
"..      ..",
"..      ..",
"..      ..",
"..      ..",
"..      ..",
"..      ..",
"..      ..",
"..      ..",
"..      ..",
"..      ..",
"..      ..",
"..      ..",
"..      ..",
"..      ..",
"..      ..",
"..      ..",
"..      .."
};
