/* XPM */
static char *j[] = {
/* columns rows colors chars-per-pixel */
"22 17 8 1 ",
"  c #DFC40F",
". c #DFC50F",
"X c #DFC410",
"o c #E0C40F",
"O c #E0C50F",
"+ c #E0C410",
"@ c #E0C510",
"# c None",
/* pixels */
"#########@@@@@@o######",
"#########@@@@@@o######",
"#########@@@@@@o######",
"#########@@@@@@o######",
"#########@@@@@@o######",
"#########@@@@@@#######",
"#########@@@@@@#######",
"#########@@@@@@#######",
"#########@@@@@@#######",
"#########@@@@@@#######",
"#########@@@@@@#######",
"########o@@@@@@#######",
"##### +@@@@@@@o#######",
"#####.@@@@@@@@ #######",
"#####.@@@@@@@X########",
"#####.@@@@@@O#########",
"#####.@@@@XX##########"
};
