/* XPM */
static char *k[] = {
/* columns rows colors chars-per-pixel */
"22 17 10 1 ",
"  c #DEC40F",
". c #DFC40F",
"X c #DFC50F",
"o c #DEC410",
"O c #DFC410",
"+ c #DEC510",
"@ c #DFC510",
"# c #E0C410",
"$ c #E0C510",
"% c None",
/* pixels */
"%%%$$$$$$%%%%$$$$#%%%%",
"%%%$$$$$$%%%@$$$O%%%%%",
"%%%$$$$$$%%O$$$$X%%%%%",
"%%%$$$$$$%o$$$$.%%%%%%",
"%%%$$$$$$%$$$$@%%%%%%%",
"%%%$$$$$$#$$$$%%%%%%%%",
"%%%$$$$$$$$$$ %%%%%%%%",
"%%%$$$$$$$$$O%%%%%%%%%",
"%%%$$$$$$$$$%%%%%%%%%%",
"%%%$$$$$$$$$@%%%%%%%%%",
"%%%$$$$$$$$$$.%%%%%%%%",
"%%%$$$$$$$$$$$%%%%%%%%",
"%%%$$$$$$+$$$$$$$$$%%%",
"%%%$$$$$$%#$$$$$$$$%%%",
"%%%$$$$$$%%O$$$$$$$%%%",
"%%%$$$$$$%%%X$$$$$$%%%",
"%%%$$$$$$%%%%.$$$$$%%%"
};
