/* XPM */
static char *l[] = {
/* columns rows colors chars-per-pixel */
"22 17 2 1 ",
"  c #E0C510",
". c None",
/* pixels */
"...      .............",
"...      .............",
"...      .............",
"...      .............",
"...      .............",
"...      .............",
"...      .............",
"...      .............",
"...      .............",
"...      .............",
"...      .............",
"...      .............",
"...               ....",
"...               ....",
"...               ....",
"...               ....",
"...               ...."
};
