/* XPM */
static char *n[] = {
/* columns rows colors chars-per-pixel */
"22 17 7 1 ",
"  c #DEC40F",
". c #DFC40F",
"X c #DFC50F",
"o c #DFC410",
"O c #E0C50F",
"+ c #E0C510",
"@ c None",
/* pixels */
"@@@++++++@@@@++++++@@@",
"@@@++++++.@@@++++++@@@",
"@@@+++++++ @@++++++@@@",
"@@@+++++++o@@++++++@@@",
"@@@++++++++O@++++++@@@",
"@@@+++++++++@++++++@@@",
"@@@+++++++++.++++++@@@",
"@@@++++++++++++++++@@@",
"@@@++++++++++++++++@@@",
"@@@++++++++++++++++@@@",
"@@@++++++.+++++++++@@@",
"@@@++++++@+++++++++@@@",
"@@@++++++@O++++++++@@@",
"@@@++++++@@o+++++++@@@",
"@@@++++++@@X+++++++@@@",
"@@@++++++@@@.++++++@@@",
"@@@++++++@@@@++++++@@@"
};
