/* XPM */
static char *o[] = {
/* columns rows colors chars-per-pixel */
"22 17 13 1 ",
"  c #DEC30F",
". c #DEC40F",
"X c #DFC40F",
"o c #DEC50F",
"O c #DFC50F",
"+ c #DFC410",
"@ c #DFC510",
"# c #E0C40F",
"$ c #E0C50F",
"% c #E0C310",
"& c #E0C410",
"* c #E0C510",
"= c None",
/* pixels */
"========#$$@##&=======",
"=====&+*********O=====",
"====X************* ===",
"===#***************===",
"===****************O==",
"==&*****&====+******==",
"==******======+*****@=",
"==******=======*****O=",
"==*****O=======******=",
"==*****X=======*****&=",
"==*****@=======*****O=",
"==******====== *****+=",
"==O*****+==== ******==",
"==.****************X==",
"===&***************===",
"====&*************%===",
"=====o**********@====="
};
