/* XPM */
static char *p[] = {
/* columns rows colors chars-per-pixel */
"22 17 8 1 ",
"  c #DEC40F",
". c #DFC410",
"X c #E0C40F",
"o c #E0C50F",
"O c #E0C310",
"+ c #E0C410",
"@ c #E0C510",
"# c None",
/* pixels */
"###@@@@@@@@@@@oX######",
"###@@@@@@@@@@@@@@.####",
"###@@@@@@@@@@@@@@@.###",
"###@@@@@@@@@@@@@@@@###",
"###@@@@@@#####@@@@@###",
"###@@@@@@#####@@@@@O##",
"###@@@@@@#####@@@@@ ##",
"###@@@@@@@@@@@@@@@@###",
"###@@@@@@@@@@@@@@@X###",
"###@@@@@@@@@@@@@@+####",
"###@@@@@@@@@@@@X######",
"###@@@@@@#############",
"###@@@@@@#############",
"###@@@@@@#############",
"###@@@@@@#############",
"###@@@@@@#############",
"###@@@@@@#############"
};
