/* XPM */
static char *q[] = {
/* columns rows colors chars-per-pixel */
"22 17 13 1 ",
"  c #DEC30F",
". c #DFC30F",
"X c #DFC40F",
"o c #DFC50F",
"O c #DEC410",
"+ c #DFC410",
"@ c #DEC510",
"# c #DFC510",
"$ c #E0C40F",
"% c #E0C50F",
"& c #E0C410",
"* c #E0C510",
"= c None",
/* pixels */
"=======O+X*XX%========",
"=====$*********#======",
"===#*************+====",
"==.***************#===",
"==*****************===",
"=X******====+******.==",
"=X*****======+*****+==",
"=+****&=======*****&==",
"=*****.=======*****@==",
"=+****X=======*****===",
"=X*****=======****+===",
"=o*****=======****+===",
"==*****$==.o#+******==",
"==+*******#*********==",
"===*****************==",
"==== +**************==",
"=======&&X#X#$&*$+o+=="
};
