/* XPM */
static char *qmark[] = {
/* columns rows colors chars-per-pixel */
"22 17 11 1 ",
"  c #DFC30F",
". c #DFC40F",
"X c #DFC50F",
"o c #DEC410",
"O c #DFC410",
"+ c #DFC510",
"@ c #E0C30F",
"# c #E0C40F",
"$ c #E0C410",
"% c #E0C510",
"& c None",
/* pixels */
"&&&&&&&@%O#$+.O&&&&&&&",
"&&&&&&%%%%%%%%%%O&&&&&",
"&&&&&&%%%%%%%%%%%&&&&&",
"&&&&&&%%%%%%%%%%%#&&&&",
"&&&&&&o&&&&O%%%%%X&&&&",
"&&&&&&&&&&&&%%%%%&&&&&",
"&&&&&&&&&&&+%%%%+&&&&&",
"&&&&&&&&&&%%%%%O&&&&&&",
"&&&&&&&&&%%%%% &&&&&&&",
"&&&&&&&&&%%%%O&&&&&&&&",
"&&&&&&&&&$$$$&&&&&&&&&",
"&&&&&&&&&&&&&&&&&&&&&&",
"&&&&&&&&%%%%%&&&&&&&&&",
"&&&&&&&&%%%%%&&&&&&&&&",
"&&&&&&&&%%%%%&&&&&&&&&",
"&&&&&&&&%%%%%&&&&&&&&&",
"&&&&&&&&%%%%%&&&&&&&&&"
};
