/* XPM */
static char *r[] = {
/* columns rows colors chars-per-pixel */
"22 17 9 1 ",
"  c #DFC30F",
". c #DFC40F",
"X c #DFC50F",
"o c #DFC410",
"O c #DFC510",
"+ c #E0C50F",
"@ c #E0C410",
"# c #E0C510",
"$ c None",
/* pixels */
"$$##########o#@$$$$$$$",
"$$############## $$$$$",
"$$###############$$$$$",
"$$###############o$$$$",
"$$#####X$$$$$+####$$$$",
"$$#####X$$$$$O####$$$$",
"$$#####X$$$$$o####$$$$",
"$$#####O....@####O$$$$",
"$$##############o$$$$$",
"$$############Oo$$$$$$",
"$$###########X$$$$$$$$",
"$$#####@O#####$$$$$$$$",
"$$#####X$###########$$",
"$$#####X$$X#########$$",
"$$#####X$$$.########$$",
"$$#####X$$$$@#######$$",
"$$#####X$$$$$O######$$"
};
