/* XPM */
static char *s[] = {
/* columns rows colors chars-per-pixel */
"22 17 10 1 ",
"  c #DFC40F",
". c #DEC50F",
"X c #DFC50F",
"o c #DEC410",
"O c #DFC410",
"+ c #E0C40F",
"@ c #E0C50F",
"# c #E0C410",
"$ c #E0C510",
"% c None",
/* pixels */
"%%%%%%%O $$$$$$$$%%%%%",
"%%%%%%$$$$$$$$$$$%%%%%",
"%%%%%X$$$$$$$$$$$%%%%%",
"%%%%%$$$$$$$$$$$$%%%%%",
"%%%%%$$$$$$$$$$$$%%%%%",
"%%%%%@$$$$$$%%%%%%%%%%",
"%%%%%%$$$$$$+%%%%%%%%%",
"%%%%%%O$$$$$$ %%%%%%%%",
"%%%%%%%X$$$$$$O%%%%%%%",
"%%%%%%%% $$$$$$%%%%%%%",
"%%%%%%%%%X$$$$$ %%%%%%",
"%%%%%%%%%.$$$$$$%%%%%%",
"%%%%%$$$$$$$$$$$@%%%%%",
"%%%%%$$$$$$$$$$$#%%%%%",
"%%%%%$$$$$$$$$$$%%%%%%",
"%%%%%$$$$$$$$$$$%%%%%%",
"%%%%%$$$$$$$$Oo%%%%%%%"
};
