/* XPM */
static char *u[] = {
/* columns rows colors chars-per-pixel */
"22 17 9 1 ",
"  c #DFC30F",
". c #DFC40F",
"X c #DFC410",
"o c #DFC510",
"O c #E0C40F",
"+ c #E0C50F",
"@ c #E0C410",
"# c #E0C510",
"$ c None",
/* pixels */
"$$######$$$$$######.$$",
"$$######$$$$$######$$$",
"$$######$$$$$######$$$",
"$$######$$$$$######$$$",
"$$######$$$$$######$$$",
"$$######$$$$$######$$$",
"$$######$$$$$######$$$",
"$$######$$$$$######$$$",
"$$######$$$$$######$$$",
"$$######$$$$$######$$$",
"$$O#####$$$$$#####X$$$",
"$$######$$$$$#####@$$$",
"$$ #####+$$$######.$$$",
"$$$@##############$$$$",
"$$$$X###########@$$$$$",
"$$$$$o#########o$$$$$$",
"$$$$$$$+@ooXOX$$$$$$$$"
};
