/* XPM */
static char *w[] = {
/* columns rows colors chars-per-pixel */
"22 17 12 1 ",
"  c #DFC30F",
". c #DFC40F",
"X c #DFC50F",
"o c #DFC410",
"O c #DEC510",
"+ c #DFC510",
"@ c #E0C40F",
"# c #E0C50F",
"$ c #E0C310",
"% c #E0C410",
"& c #E0C510",
"* c None",
/* pixels */
"&&&%****o&&&&****+&&&&",
"&&&&****&&&&&&***&&&&&",
"&&&&O***&&&&&+***&&&&&",
"&&&&#**.&&&&&&**$&&&&@",
"&&&&&**%&&&&&&.*.&&&&X",
"#&&&&o*&&&&&&&%*.&&&&*",
"o&&&&%#&&&&&&&&o&&&&o*",
"*&&&&&#&&&&&&&&#&&&&.*",
"*+&&&&&&&&&&&&&&&&&&X*",
"*X&&&&&&&&o&&&&&&&&&**",
"**&&&&&&&&oX&&&&&&&o**",
"**&&&&&&&&*%&&&&&&&.**",
"**&&&&&&&&**&&&&&&&X**",
"**o&&&&&&X**o&&&&&&***",
"***&&&&&& **+&&&&&o***",
"***o&&&&&****&&&&&.***",
"***.&&&&&****&&&&&X***"
};
