/* XPM */
static char *x[] = {
/* columns rows colors chars-per-pixel */
"22 17 10 1 ",
"  c #DEC30F",
". c #DEC40F",
"X c #DFC40F",
"o c #DFC50F",
"O c #DFC410",
"+ c #DFC510",
"@ c #E0C50F",
"# c #E0C410",
"$ c #E0C510",
"% c None",
/* pixels */
"%%$$$$$$%%%%%%%O$$$$$%",
"%%$$$$$$#%%%%%O$$$$$$%",
"%%%$$$$$$#%%%.$$$$$@%%",
"%%%%X$$$$$%%%O$$$$+%%%",
"%%%%%O$$$$@%O$$$$$%%%%",
"%%%%%%$$$$$X$$$$$$%%%%",
"%%%%%%o$$$$$$$$$+%%%%%",
"%%%%%%%+$$$$$$$$%%%%%%",
"%%%%%%%%$$$$$$$+%%%%%%",
"%%%%%%%O$$$$$$$$%%%%%%",
"%%%%%%X$$$$$$$$$+%%%%%",
"%%%%% $$$$$X$$$$$$%%%%",
"%%%%%O$$$$@%O$$$$$%%%%",
"%%%%X$$$$$%%%O$$$$+%%%",
"%%%X$$$$$#%%%.$$$$$@%%",
"%%%$$$$$#%%%%%O$$$$$O%",
"%%$$$$$$%%%%%%%O$$$$$%"
};
