/* XPM */
static char *y[] = {
/* columns rows colors chars-per-pixel */
"22 17 10 1 ",
"  c #DFC30F",
". c #DEC40F",
"X c #DFC40F",
"o c #DFC410",
"O c #DFC510",
"+ c #E0C40F",
"@ c #E0C310",
"# c #E0C410",
"$ c #E0C510",
"% c None",
/* pixels */
"%%$$$$$ %%%%%%+$$$$$%%",
"%%$$$$$$%%%%%%$$$$$$%%",
"%%o$$$$$O%%%%+$$$$$$%%",
"%%%#$$$$$o%%X$$$$$#%%%",
"%%%%$$$$$$%.$$$$$$%%%%",
"%%%%o$$$$$$O$$$$$o%%%%",
"%%%%%+$$$$$$$$$$#%%%%%",
"%%%%%%o$$$$$$$$o%%%%%%",
"%%%%%%@$$$$$$$$o%%%%%%",
"%%%%%%%X$$$$$$X%%%%%%%",
"%%%%%%%%$$$$$$%%%%%%%%",
"%%%%%%%%$$$$$$%%%%%%%%",
"%%%%%%%%$$$$$$%%%%%%%%",
"%%%%%%%%$$$$$$%%%%%%%%",
"%%%%%%%%$$$$$$%%%%%%%%",
"%%%%%%%%$$$$$$%%%%%%%%",
"%%%%%%%%$$$$$$%%%%%%%%"
};
