/* XPM */
static char *z[] = {
/* columns rows colors chars-per-pixel */
"22 17 11 1 ",
"  c #DFC30F",
". c #DEC40F",
"X c #DFC40F",
"o c #DFC50F",
"O c #DFC410",
"+ c #DFC510",
"@ c #E0C40F",
"# c #E0C50F",
"$ c #E0C410",
"% c #E0C510",
"& c None",
/* pixels */
"&&&%%%%%%%%%%%%%%@&&&&",
"&&&%%%%%%%%%%%%%%@&&&&",
"&&&%%%%%%%%%%%%%%@&&&&",
"&&&%%%%%%%%%%%%%%@&&&&",
"&&&%%%%%%%%%%%%%%%&&&&",
"&&&&&&&&&&@%%%%%$&&&&&",
"&&&&&&&&&$%%%%%+&&&&&&",
"&&&&&&&&#%%%%%O&&&&&&&",
"&&&&&&&O%%%%%o&&&&&&&&",
"&&&&& %%%%%% &&&&&&&&&",
"&&&&X%%%%%%.&&&&&&&&&&",
"&&&$%%%%%$&&&&&&&&&&&&",
"&&&%%%%%%%%%%%%%%@&&&&",
"&&&%%%%%%%%%%%%%%@&&&&",
"&&&%%%%%%%%%%%%%%@&&&&",
"&&&%%%%%%%%%%%%%%@&&&&",
"&&&%%%%%%%%%%%%%%@&&&&"
};
